<svg xmlns="http://www.w3.org/2000/svg" width="40" height="40" viewBox="0 0 40 40"><path stroke="#000" stroke-width="2" fill="#FFF" d="M28.58 35.995h-9.099c-1.313 0-2.492-.338-3.531-1.01a6.927 6.927 0 0 1-1.136-.924l-7.836-7.837c-2-1.999 1-4.998 2.998-2.999l3.999 3.999V9.228c0-1.092.886-1.985 1.975-1.999h.025c1.1 0 2 .899 2 1.999l-.012 10.376a.439.439 0 0 0 .439.44h.159a.437.437 0 0 0 .433-.36c.171-.93.989-1.64 1.967-1.64.977 0 1.796.71 1.967 1.64.039.211.219.36.433.36h.2a.435.435 0 0 0 .432-.36c.172-.93.991-1.64 1.968-1.64s1.795.71 1.967 1.64c.038.211.218.36.433.36h.2a.438.438 0 0 0 .433-.36c.17-.93.989-1.64 1.967-1.64 1.1 0 2.04.855 2.04 1.956v11.75c.001 2.426-1.997 4.245-4.421 4.245zm-7.578-21.948a7.15 7.15 0 0 1-2.02 1.419v-3.801a4.025 4.025 0 0 0 1.008-2.669c0-1.116-.453-2.126-1.184-2.857s-1.741-1.183-2.856-1.183-2.126.453-2.856 1.183a4.026 4.026 0 0 0-1.184 2.857c0 1.065.407 2.033 1.074 2.75v3.75a7.137 7.137 0 0 1-2.085-1.45l.003-.003a7.122 7.122 0 0 1-2.097-5.047c0-1.972.801-3.758 2.094-5.052 1.293-1.292 3.079-2.092 5.051-2.092s3.759.8 5.052 2.092c1.293 1.294 2.093 3.08 2.093 5.052s-.8 3.759-2.093 5.051z" fill-rule="evenodd" clip-rule="evenodd"/></svg>