<?xml version="1.0" encoding="iso-8859-1"?>
<!-- Generator: Adobe Illustrator 16.0.2, SVG Export Plug-In . SVG Version: 6.00 Build 0)  -->
<!DOCTYPE svg PUBLIC "-//W3C//DTD SVG 1.1//EN" "http://www.w3.org/Graphics/SVG/1.1/DTD/svg11.dtd">
<svg version="1.1" id="co_x5F_navigation" xmlns="http://www.w3.org/2000/svg" xmlns:xlink="http://www.w3.org/1999/xlink" x="0px"
	 y="0px" width="40px" height="40px" viewBox="0 0 40 40" style="enable-background:new 0 0 40 40;" xml:space="preserve">
<path stroke="#000000" stroke-width="2" fill="#FFFFFF" style="fill-rule:evenodd;clip-rule:evenodd;" d="M28.58,35.995h-9.099c-1.313,0-2.492-0.338-3.531-1.01
	c-0.399-0.258-0.778-0.566-1.136-0.924l-7.836-7.837c-2-1.999,1-4.998,2.998-2.999l3.999,3.999c0-5.998,0-11.997,0-17.996
	c0-1.092,0.886-1.985,1.975-1.999h0.025c1.1,0,2,0.899,2,1.999l-0.012,10.376c-0.002,0.242,0.196,0.44,0.439,0.44h0.159
	c0.214,0,0.394-0.149,0.433-0.36c0.171-0.93,0.989-1.64,1.967-1.64c0.977,0,1.796,0.71,1.967,1.64
	c0.039,0.211,0.219,0.36,0.433,0.36h0.2c0.214,0,0.394-0.149,0.432-0.36c0.172-0.93,0.991-1.64,1.968-1.64s1.795,0.71,1.967,1.64
	c0.038,0.211,0.218,0.36,0.433,0.36h0.2c0.214,0,0.393-0.149,0.433-0.36c0.17-0.93,0.989-1.64,1.967-1.64
	c1.1,0,2.04,0.855,2.04,1.956v11.75C33.002,34.176,31.004,35.995,28.58,35.995z M21.002,14.047c-0.583,0.583-1.265,1.065-2.02,1.419
	v-3.801c0.627-0.712,1.008-1.646,1.008-2.669c0-1.116-0.453-2.126-1.184-2.857s-1.741-1.183-2.856-1.183s-2.126,0.453-2.856,1.183
	c-0.731,0.73-1.184,1.741-1.184,2.857c0,1.065,0.407,2.033,1.074,2.75v3.75c-0.781-0.356-1.485-0.85-2.085-1.45l0.003-0.003
	c-1.295-1.295-2.097-3.081-2.097-5.047c0-1.972,0.801-3.758,2.094-5.052c1.293-1.292,3.079-2.092,5.051-2.092s3.759,0.8,5.052,2.092
	c1.293,1.294,2.093,3.08,2.093,5.052S22.295,12.755,21.002,14.047z"/>
</svg>
